<?xml version="1.0" standalone="no"?>
<!DOCTYPE svg PUBLIC "-//W3C//DTD SVG 20010904//EN"
 "http://www.w3.org/TR/2001/REC-SVG-20010904/DTD/svg10.dtd">
<svg version="1.0" xmlns="http://www.w3.org/2000/svg"
 width="1121.000000pt" height="1121.000000pt" viewBox="0 0 1121.000000 1121.000000"
 preserveAspectRatio="xMidYMid meet">
<metadata>
Created by potrace 1.14, written by Peter Selinger 2001-2017
</metadata>
<g transform="translate(0.000000,1121.000000) scale(0.100000,-0.100000)"
fill="#000000" stroke="none">
<path d="M5470 11143 c-98 -7 -375 -35 -381 -39 -4 -2 -67 -13 -142 -24 -74
-11 -145 -23 -158 -28 -13 -5 -46 -13 -74 -17 -177 -25 -698 -184 -935 -285
-25 -10 -79 -33 -120 -51 -310 -130 -785 -403 -1079 -622 -417 -308 -824 -711
-1123 -1109 -176 -234 -302 -426 -430 -658 -75 -136 -238 -461 -238 -476 0 -3
-11 -30 -25 -60 -14 -30 -25 -57 -25 -60 0 -3 -7 -20 -15 -37 -39 -87 -159
-439 -203 -602 -34 -124 -74 -299 -97 -425 -9 -47 -18 -93 -21 -102 -7 -23 25
-35 110 -44 75 -8 63 -27 94 156 11 63 31 162 45 220 24 96 35 138 95 340 20
68 72 217 91 260 6 14 27 68 46 120 39 102 43 112 129 293 31 65 56 120 56
122 0 1 32 61 71 131 190 344 334 556 602 888 104 128 301 338 443 472 745
698 1639 1164 2624 1365 171 35 432 73 620 89 74 7 141 14 148 16 13 4 16 54
6 128 -7 51 3 48 -114 39z"/>
<path d="M7266 10962 c-12 -21 -37 -155 -30 -161 5 -5 54 -20 109 -36 131 -36
438 -144 589 -207 583 -242 1157 -617 1621 -1059 44 -42 96 -91 116 -110 102
-96 349 -380 471 -540 69 -91 209 -290 243 -346 83 -136 109 -173 120 -173 13
0 121 62 139 80 6 6 -1 24 -17 50 -15 22 -38 57 -50 78 -232 372 -465 662
-801 997 -311 311 -617 556 -946 760 -19 12 -53 33 -75 47 -62 39 -151 91
-235 136 -79 43 -378 192 -386 192 -4 0 -26 9 -48 19 -171 80 -493 197 -646
236 -36 9 -82 22 -103 30 -42 17 -63 19 -71 7z"/>
<path d="M5550 10590 c-47 -5 -143 -14 -215 -20 -71 -6 -148 -15 -170 -20 -22
-5 -87 -16 -145 -25 -171 -25 -408 -80 -590 -137 -170 -53 -378 -126 -437
-153 -17 -8 -34 -15 -37 -15 -14 0 -425 -198 -491 -237 -476 -278 -778 -507
-1111 -838 -183 -183 -235 -241 -378 -420 -552 -692 -900 -1487 -1026 -2340
-37 -252 -41 -281 -50 -420 -19 -267 -8 -741 20 -910 5 -33 18 -123 29 -200
122 -873 532 -1767 1135 -2474 125 -148 439 -459 576 -573 661 -547 1361 -888
2185 -1066 634 -137 1416 -140 2029 -7 900 195 1643 569 2321 1169 116 103
255 241 255 253 0 5 -46 52 -102 105 -57 53 -164 152 -238 222 -74 69 -139
126 -143 126 -5 0 -49 -39 -99 -87 -50 -49 -100 -96 -110 -106 -109 -104 -424
-344 -568 -432 -52 -32 -111 -68 -130 -80 -80 -51 -260 -144 -405 -210 -33
-15 -78 -35 -101 -46 -23 -10 -44 -19 -48 -19 -3 0 -25 -9 -49 -20 -45 -20
-267 -95 -407 -137 -152 -45 -358 -87 -655 -133 -98 -15 -554 -33 -637 -26
l-78 8 0 38 c0 20 3 51 6 67 l6 30 276 6 c202 3 320 11 435 26 783 106 1488
410 2107 909 101 81 204 175 328 300 l123 124 52 -48 c58 -53 151 -141 371
-349 82 -77 155 -144 163 -149 18 -10 41 15 186 194 122 150 220 284 303 412
37 57 74 114 84 128 61 90 250 451 310 593 17 40 40 91 51 114 11 24 18 47 15
52 -6 8 -311 181 -321 181 -2 0 -90 47 -195 105 -105 58 -192 105 -195 105 -2
0 -73 38 -157 84 -420 229 -507 276 -511 276 -2 0 -81 43 -176 95 -95 52 -174
95 -176 95 -2 0 -69 36 -149 80 -79 44 -147 80 -149 80 -3 0 -81 42 -174 93
-279 154 -293 161 -293 133 0 -7 -23 -82 -51 -167 -151 -450 -447 -841 -849
-1121 -85 -58 -293 -174 -362 -200 -29 -11 -66 -26 -83 -33 -16 -8 -73 -27
-125 -44 -248 -77 -465 -107 -720 -97 -301 10 -489 49 -760 156 -420 165 -808
494 -1045 885 -59 98 -158 296 -175 350 -7 22 -16 45 -20 50 -4 6 -15 39 -25
75 -9 36 -21 70 -26 76 -7 9 -28 7 -81 -6 -39 -10 -75 -23 -81 -29 -26 -26
144 -442 244 -596 219 -340 419 -550 709 -744 678 -455 1535 -531 2270 -200
296 132 535 301 765 540 161 167 260 303 384 526 28 51 51 95 51 98 0 2 13 33
29 67 15 35 32 74 36 88 4 14 14 37 22 53 l14 27 97 -51 c53 -29 167 -90 252
-136 85 -46 162 -88 170 -92 18 -9 261 -140 420 -226 63 -34 151 -82 195 -105
44 -23 197 -106 340 -183 249 -134 308 -166 562 -302 62 -33 113 -64 113 -68
0 -4 -36 -82 -81 -172 l-80 -165 -87 47 c-48 25 -155 83 -239 129 -83 46 -153
84 -156 84 -2 0 -81 43 -176 95 -95 52 -174 95 -176 95 -2 0 -58 30 -125 66
-69 38 -125 63 -130 58 -5 -5 -45 -70 -90 -144 -309 -510 -729 -927 -1243
-1234 -81 -48 -266 -144 -353 -183 -118 -52 -156 -67 -274 -110 -139 -49 -331
-103 -460 -128 -47 -10 -103 -21 -125 -25 -22 -5 -124 -18 -227 -30 -322 -37
-774 -19 -1043 40 -49 11 -119 26 -155 34 -387 85 -780 254 -1130 485 -63 42
-129 87 -146 100 l-32 23 41 54 c22 30 44 54 49 54 5 0 32 -17 61 -38 176
-129 534 -323 727 -395 561 -208 1066 -274 1632 -211 644 70 1251 324 1762
734 204 164 459 426 586 603 19 27 44 60 56 75 55 70 207 312 224 356 9 25 0
31 -275 176 -44 24 -123 66 -175 95 -131 71 -128 70 -148 34 -61 -112 -170
-275 -262 -393 -46 -59 -223 -246 -294 -312 -208 -190 -524 -393 -771 -496
-150 -62 -346 -125 -460 -148 -33 -6 -82 -18 -110 -25 -145 -39 -658 -55 -860
-27 -437 60 -838 212 -1190 450 -428 290 -773 700 -975 1162 -60 138 -64 147
-93 230 -149 435 -186 972 -97 1412 16 81 37 171 45 200 45 148 59 188 95 282
81 205 203 426 344 621 283 391 727 740 1166 914 564 225 1127 268 1705 131
391 -93 837 -320 1125 -573 259 -227 425 -430 627 -765 8 -13 20 -25 27 -28
12 -5 106 44 415 213 73 40 137 73 142 73 4 0 12 7 17 16 9 17 -60 142 -157
284 -25 36 -54 79 -65 95 -145 211 -427 510 -650 688 -101 80 -246 181 -386
269 -56 35 -343 180 -415 210 -209 86 -447 161 -615 194 -47 9 -103 20 -126
24 -22 5 -123 18 -225 30 -274 32 -673 21 -934 -25 -507 -90 -946 -265 -1351
-541 l-123 -83 -42 50 c-33 39 -40 55 -33 67 29 45 340 235 569 347 777 380
1709 457 2550 209 862 -254 1594 -823 2061 -1601 43 -73 85 -133 92 -133 7 0
104 49 215 109 268 144 295 159 482 258 88 47 208 112 267 144 58 33 109 59
113 59 6 0 165 -319 165 -333 0 -4 -10 -12 -22 -17 -13 -6 -30 -14 -38 -19
-26 -17 -311 -171 -315 -171 -2 0 -70 -36 -150 -80 -80 -44 -147 -80 -149 -80
-2 0 -81 -43 -176 -95 -95 -52 -175 -95 -177 -95 -2 0 -69 -36 -149 -80 -79
-44 -146 -80 -149 -80 -2 0 -64 -33 -137 -73 -73 -41 -182 -100 -243 -132 -60
-32 -145 -77 -187 -101 -43 -24 -80 -44 -83 -44 -2 0 -41 -20 -86 -45 -45 -25
-85 -45 -89 -45 -4 0 -18 26 -30 58 -13 31 -34 81 -47 110 -12 29 -23 54 -23
56 0 13 -152 275 -198 341 -286 412 -685 718 -1167 896 -44 17 -131 43 -194
60 -105 27 -174 40 -391 70 -182 26 -571 -9 -808 -72 -81 -22 -250 -78 -267
-89 -5 -4 -32 -15 -59 -25 -225 -83 -581 -330 -781 -543 -237 -251 -425 -560
-526 -865 -49 -149 -51 -145 54 -172 77 -21 81 -19 93 45 23 128 169 423 309
626 132 193 367 419 583 561 81 53 277 158 369 196 260 110 643 178 913 162
348 -20 592 -81 875 -220 556 -272 960 -749 1146 -1352 21 -66 37 -103 46
-103 8 0 96 44 196 99 175 95 663 357 797 429 92 49 325 174 460 247 63 34
151 81 195 105 93 49 266 142 485 261 85 46 189 102 231 124 42 22 86 47 99
55 l23 16 -33 74 c-86 200 -261 550 -295 590 -7 8 -21 31 -30 50 -92 182 -551
787 -590 778 -7 -2 -143 -124 -300 -271 -158 -147 -291 -266 -296 -265 -4 2
-68 62 -141 134 -306 301 -652 558 -993 736 -193 100 -336 164 -560 248 -48
18 -192 62 -305 94 -154 44 -328 79 -575 116 -92 14 -388 30 -548 30 -164 0
-157 -4 -157 92 l0 46 64 7 c35 4 175 2 312 -5 618 -28 1159 -165 1709 -430
192 -93 498 -277 635 -382 240 -184 292 -229 480 -406 49 -47 89 -78 96 -74
20 12 458 424 468 441 19 32 -345 357 -669 597 -240 179 -622 395 -935 529
-47 20 -94 40 -105 45 -53 25 -293 109 -420 148 -170 52 -369 100 -555 132
-63 11 -137 24 -165 30 -166 34 -851 60 -1045 40z"/>
<path d="M5680 7419 c-365 -52 -627 -156 -898 -356 -138 -102 -303 -274 -404
-423 -53 -78 -153 -255 -163 -290 -4 -14 -11 -29 -15 -35 -11 -16 -68 -184
-86 -255 -32 -127 -43 -207 -50 -340 -18 -365 71 -727 251 -1026 301 -499 790
-813 1368 -879 66 -7 63 -12 72 97 7 90 22 79 -138 97 -101 11 -135 20 -292
73 -102 35 -266 118 -370 188 -98 66 -249 203 -327 296 -182 219 -286 433
-354 725 -25 104 -27 134 -28 329 -1 191 2 226 22 315 35 149 79 278 134 390
64 128 78 151 159 260 232 309 548 521 916 613 67 17 156 34 198 38 41 4 78
10 80 14 9 14 -8 169 -19 172 -6 2 -31 1 -56 -3z"/>
<path d="M476 4709 c-27 -4 -53 -12 -58 -17 -11 -11 7 -124 53 -322 155 -665
429 -1295 807 -1850 591 -869 1355 -1513 2322 -1955 422 -193 963 -354 1425
-424 195 -30 538 -62 549 -51 5 5 9 46 10 92 l1 83 -140 11 c-160 13 -441 49
-500 64 -22 5 -78 17 -125 25 -102 19 -269 58 -365 86 -162 48 -273 82 -322
100 -299 109 -390 147 -643 272 -515 254 -991 598 -1410 1017 -168 167 -281
296 -483 550 -60 74 -215 302 -294 430 -340 551 -581 1166 -693 1770 -11 57
-22 110 -24 117 -6 14 -36 15 -110 2z"/>
<path d="M10568 3016 c-82 -153 -192 -327 -327 -516 -516 -722 -1201 -1305
-2001 -1701 -233 -116 -515 -230 -730 -295 -63 -20 -152 -47 -197 -61 -46 -13
-83 -28 -83 -31 0 -4 8 -42 17 -84 15 -70 19 -78 40 -78 37 0 423 126 600 196
826 326 1554 834 2129 1485 116 131 164 187 200 234 20 28 65 86 99 130 82
106 220 312 310 460 91 150 108 184 102 200 -4 10 -128 85 -142 85 -2 0 -10
-11 -17 -24z"/>
</g>
</svg>
